<svg xmlns="http://www.w3.org/2000/svg" height="800" width="1200" viewBox="-20.881545 -7.22395 180.97339 43.3437"><g fill-rule="evenodd" fill="none"><path fill="#31322F" d="M68.6152 14.5076c0-1.9183-1.5693-3.5169-3.4295-3.5169-1.8606 0-3.4302 1.5986-3.4302 3.5169 0 1.8895 1.5696 3.5171 3.4302 3.5171 1.8602 0 3.4295-1.6276 3.4295-3.5171zm1.4826-4.9122c1.308 1.337 2.0346 3.081 2.0346 4.9122 0 1.8315-.7265 3.5754-2.0346 4.9124-1.308 1.3078-3.052 2.0056-4.9121 2.0056-1.221 0-2.3258-.436-3.2849-1.308l-.1453-.116v7.7843l-3.5169 1.1099V7.851h3.5169v1.047l.1453-.1456c1.0467-1.0172 2.2381-1.1625 3.2849-1.1625 1.8312 0 3.5751.6979 4.9121 2.0056zm6.802 4.9122c0 1.9185 1.5697 3.5171 3.4302 3.5171 1.8602 0 3.4296-1.5986 3.4296-3.5171 0-1.8893-1.5694-3.5169-3.4296-3.5169-1.8605 0-3.4302 1.6276-3.4302 3.5169zM75.4172 19.42c-1.308-1.337-2.0345-3.081-2.0345-4.9124 0-1.8313.7265-3.5752 2.0345-4.9122 1.308-1.3077 3.0523-2.0056 4.9128-2.0056 1.2204 0 2.3251.436 3.2843 1.308l.1453.116V7.8512h3.5171v13.3132h-3.5171v-1.0468l-.1454.1456c-1.046 1.0172-2.238 1.1625-3.2842 1.1625-1.8315 0-3.5752-.6978-4.9128-2.0056zm15.3773 9.4758l3.1685-7.7025L88.6436 7.851h3.8948l3.3139 8.2844 3.3715-8.2844h3.866l-8.4876 21.0447h-3.8077M6.8044 9.831c-2.5625 0-4.6475 2.098-4.6475 4.6766 0 2.5785 2.085 4.6765 4.6475 4.6765 2.5629 0 4.6479-2.098 4.6479-4.6765 0-2.5786-2.085-4.6766-4.6479-4.6766zm0 11.4523c-1.8194 0-3.532-.6948-4.8215-1.9566C.705 18.0202 0 16.3077 0 14.5076c0-1.8002.705-3.5127 1.9856-4.8216C3.2728 8.427 4.985 7.7321 6.8044 7.7321c1.8406 0 3.3906.974 4.3663 1.7908l.2816.2356v-1.736h2.1572V20.993h-2.1572v-1.7364l-.2816.2353c-.9757.8172-2.5257 1.7914-4.3663 1.7914zm10.7101-.2903V10.0636H15.538V8.0224h1.9765V4.189c0-2.349 1.865-4.189 4.2464-4.189h2.7127l-.5474 2.0412h-2.107c-1.144 0-2.1478 1.0307-2.1478 2.206v3.7752h4.0983v2.0412h-4.0983V20.993h-2.157m14.3901 0c-2.3417 0-4.2464-1.9056-4.2464-4.247v-6.6824h-1.9768V8.0224h1.9768V0h2.1566v8.0224h4.0987v2.0412h-4.0987v6.6244c0 1.1848 1.024 2.2638 2.1484 2.2638h2.1065l.5476 2.0412h-2.7127m9.2891-11.075c-1.6675 0-3.2157 1.2023-3.853 2.9918l-.021.039-.1232.2477h7.9962l-.1547-.3063c-.5975-1.7687-2.1463-2.9722-3.8443-2.9722zM41.19 21.2253c-1.688-.0012-3.241-.7033-4.3736-1.9772-1.0391-1.1255-1.647-2.5368-1.7596-4.0841-.0284-.2036-.0284-.3951-.0284-.5981a7.083 7.083 0 01.1704-1.5325c.2498-1.166.8086-2.2545 1.6167-3.1486 1.1259-1.2386 2.7218-1.9494 4.3781-1.9494 1.6708 0 3.2368.693 4.4092 1.9512.8413.9313 1.4002 2.0182 1.614 3.1417.1692.9929.1734 1.6095.1553 1.9185H37.0982v.2296c.301 2.297 2.0346 4.0355 4.0347 4.0663 1.2295-.0601 2.4423-.563 3.2827-1.3524l1.7995 1.0745c-.4884.5175-1.0114.9431-1.5935 1.2974-.9488.5692-2.1357.9024-3.4316.963zm8.3003-.2323V8.0224h2.1575v1.6394l.2981-.3292c.765-.844 3.0133-1.5319 4.508-1.5956l-.5262 2.1541c-2.3723.068-4.28 1.9173-4.28 4.1805v6.9214h-2.1574"/><path fill="#306E9A" d="M121.7142 11.5281l3.7773-2.1865c-.4175-.7325-.3157-.5564-.696-1.2476-.403-.7322-.251-1.0201.5812-1.0262a595.2784 595.2784 0 017.2705-.0063c.7199.004.8936.312.5326.947a632.7397 632.7397 0 01-3.6335 6.3024c-.3906.6685-.7322.667-1.1403.013-.4193-.6721-.3076-.506-.7562-1.2679l-3.7651 2.1865c.0743.194.1691.3184.2468.4535.9325 1.623 1.349 2.3982 2.3127 4.0029 1.1419 1.9016 3.5356 2.016 4.895.2585.151-.1954.2894-.403.413-.6168 2.287-3.9615 4.5753-7.9221 6.8488-11.8915.2305-.4018.4383-.8407.5383-1.289.3984-1.7868-.9271-3.476-2.79-3.486-4.901-.026-9.803-.03-14.704.0132-2.2324.0197-3.574 2.2548-2.5934 4.2192.3196.6395.703 1.2473 1.0622 1.867.6757 1.1663.8543 1.4732 1.6001 2.7546"/><path fill="#1F4066" d="M110.8169 23.767l.006-4.3482s-.6027-.0063-1.4171-.0063c-.8292 0-1.0002-.293-.5909-1.0098a585.1531 585.1531 0 013.6168-6.241c.362-.6157.6824-.6698 1.0779.0147 1.2029 2.0835 2.4097 4.1648 3.5969 6.2574.3791.6679.2075.9603-.557.9848-.7894 0-1.4643-.001-1.4643-.001l-.0003 4.3612s3.2178.0006 5.0989.0006c2.2-.0326 3.4909-2.029 2.6601-4.0708a5.4603 5.4603 0 00-.3232-.6616c-2.2593-3.9358-4.5176-7.8723-6.7902-11.8006-.2302-.3975-.503-.7948-.8377-1.1038-1.3346-1.2322-3.4443-.9365-4.3808.6567-2.464 4.192-4.9095 8.3958-7.3143 12.622-1.0954 1.9252.1537 4.1899 2.3278 4.327.7078.0447 3.7301.0188 5.2913.0188"/></g></svg>